<?xml version="1.0" encoding="UTF-8" standalone="no"?>
<!-- Created with Inkscape (http://www.inkscape.org/) -->

<svg
   width="210mm"
   height="297mm"
   viewBox="0 0 210 297"
   version="1.1"
   id="svg1"
   inkscape:version="1.3 (1:1.3+202307231459+0e150ed6c4)"
   sodipodi:docname="typst_logo.svg"
   inkscape:export-filename="typst_logo.png"
   inkscape:export-xdpi="96"
   inkscape:export-ydpi="96"
   xmlns:inkscape="http://www.inkscape.org/namespaces/inkscape"
   xmlns:sodipodi="http://sodipodi.sourceforge.net/DTD/sodipodi-0.dtd"
   xmlns="http://www.w3.org/2000/svg"
   xmlns:svg="http://www.w3.org/2000/svg">
  <sodipodi:namedview
     id="namedview1"
     pagecolor="#ffffff"
     bordercolor="#000000"
     borderopacity="0.25"
     inkscape:showpageshadow="2"
     inkscape:pageopacity="0.0"
     inkscape:pagecheckerboard="0"
     inkscape:deskcolor="#d1d1d1"
     inkscape:document-units="mm"
     inkscape:zoom="1.9960544"
     inkscape:cx="277.54755"
     inkscape:cy="295.83362"
     inkscape:window-width="1920"
     inkscape:window-height="1007"
     inkscape:window-x="0"
     inkscape:window-y="0"
     inkscape:window-maximized="1"
     inkscape:current-layer="layer1" />
  <defs
     id="defs1" />
  <g
     inkscape:label="Layer 1"
     inkscape:groupmode="layer"
     id="layer1">
    <rect
       style="fill:#f9f9f9;stroke:#666666;stroke-width:0.264583"
       id="rect1"
       width="75"
       height="75"
       x="35.960529"
       y="40.771618"
       rx="10" />
    <g
       inkscape:label=""
       transform="matrix(3.0235625,0,0,3.0235625,73.460521,52.287167)"
       id="g1"
       style="fill:#ff6600">
      <g
         id="g5633"
         transform="matrix(0.352778,0,0,0.352778,-7.28293,-3.41581)"
         style="fill:#ff6600">
        <g
           transform="translate(0,13.1641)"
           id="g4796"
           style="fill:#ff6600">
          <g
             class="typst-text"
             transform="scale(0.00976562,-0.00976562)"
             id="g7221"
             style="fill:#ff6600">
            <g
               id="g7599"
               style="fill:#ff6600">
              <path
                 d="m 88,879 h 94 q 0,78 -1,129 -1,51 -2,66.5 -1,15.5 -2,25.5 -1,10 -1,16 0,15 45,28 36,10 70,29 34,18 45,19 16,0 16,-18 -8,-82 -8,-216 v -79 h 246 q 16,0 16,-13 v -41 q 0,-27 -49,-26 H 344 V 281 Q 344,181 358.5,136.5 373,92 412,92 q 94,0 168,58 31,-2 36,-35 Q 495,-20 340,-20 182,-20 182,182 V 799 H 61 q -10,0 -10,12 v 27 q 0,41 37,41 z"
                 id="path3879"
                 style="fill:#ff6600" />
            </g>
            <g
               transform="translate(647)"
               id="g1418"
               style="fill:#ff6600">
              <path
                 d="m 418,-328 q -84,-147 -199,-147 -41,0 -68.5,21.5 -27.5,21.5 -27.5,54.5 0,27 25.5,57.5 25.5,30.5 64.5,30.5 10,0 27.5,-3 17.5,-3 31.5,-3 70,0 103,59 49,100 80,188 25,70 -29,193 L 194,662 Q 155,753 125.5,780 96,807 33,815 q -8,8 -8,32.5 0,24.5 8,35.5 82,-4 166,-4 80,0 231,4 8,-10 8,-35 0,-25 -8,-33 -80,-6 -90.5,-37.5 Q 329,746 363,682 L 545,256 q 25,-58 49,-2 l 203,469 q 23,49 -7,67.5 -30,18.5 -92,24.5 -10,8 -10,32.5 0,24.5 10,35.5 123,-4 186.5,-4 63.5,0 145.5,4 10,-10 10,-35 0,-25 -10,-33 Q 960,807 928.5,779.5 897,752 864,684 714,360 502,-152 459,-254 418,-328 Z"
                 id="path8757"
                 style="fill:#ff6600" />
            </g>
            <g
               transform="translate(1701)"
               id="g8458"
               style="fill:#ff6600">
              <path
                 d="M 358,678 Q 325,637 326,588 V 215 q 0,-54 8.5,-74 8.5,-20 40.5,-49 48,-43 145,-43 82,0 141.5,34 59.5,34 90,92 30.5,58 44,119.5 Q 809,356 809,426 809,594 738.5,699.5 668,805 565,805 522,805 460.5,767 399,729 358,678 Z m -39,76 q 2,-31 23,-9 137,154 281,154 154,0 258,-125 Q 985,649 985,481 985,241 834,94 713,-21 532,-20 q -100,0 -178,31 -16,8 -22,6 -6,-2 -6,-21 v -221 q 0,-123 27.5,-152 27.5,-29 140.5,-35 10,-10 10,-34.5 0,-24.5 -10,-32.5 -135,4 -248,4 -86,0 -230,-4 -8,8 -8,32.5 0,24.5 8,34.5 96,4 122,34 26,30 26,153 v 874 q 0,86 -23.5,108.5 Q 117,780 31,788 q -12,35 -4,58 152,20 252,59 16,0 24,-16 10,-24 16,-135 z"
                 id="path7654"
                 style="fill:#ff6600" />
            </g>
            <g
               transform="translate(2763)"
               id="g5693"
               style="fill:#ff6600">
              <path
                 d="m 98,283 q 10,10 32,10 22,0 32,-8 Q 195,146 242,96.5 289,47 387,47 q 66,0 120,37 54,37 54,106 0,68 -42,109 -42,41 -167,92 -123,51 -174,110.5 -51,59.5 -51,168.5 0,96 86,162.5 86,66.5 203,66.5 47,0 96,-7 49,-7 103.5,-18.5 Q 670,862 684,860 680,751 672,643 q -10,-10 -33,-10 -23,0 -33,8 -10,61 -33.5,102 Q 549,784 517,801.5 485,819 461.5,825 438,831 416,831 361,831 316.5,795.5 272,760 272,700 272,623 318.5,587.5 365,552 477,510 717,421 717,238 717,166 683,112.5 649,59 596,31.5 543,4 491.5,-8 440,-20 391,-20 291,-20 205,2 191,6 164,6 144,6 113,0 112,107 98,283 Z"
                 id="path5899"
                 style="fill:#ff6600" />
            </g>
            <g
               transform="translate(3561)"
               id="g5984"
               style="fill:#ff6600">
              <path
                 d="m 88,879 h 94 q 0,78 -1,129 -1,51 -2,66.5 -1,15.5 -2,25.5 -1,10 -1,16 0,15 45,28 36,10 70,29 34,18 45,19 16,0 16,-18 -8,-82 -8,-216 v -79 h 246 q 16,0 16,-13 v -41 q 0,-27 -49,-26 H 344 V 281 Q 344,181 358.5,136.5 373,92 412,92 q 94,0 168,58 31,-2 36,-35 Q 495,-20 340,-20 182,-20 182,182 V 799 H 61 q -10,0 -10,12 v 27 q 0,41 37,41 z"
                 id="path894"
                 style="fill:#ff6600" />
            </g>
          </g>
        </g>
        <g
           id="g4338"
           style="fill:#ff6600" />
      </g>
    </g>
    <g
       inkscape:label=""
       transform="matrix(2.265404,0,0,2.265404,73.460455,107.04759)"
       id="g11"
       style="fill:#000080">
      <g
         id="g8192"
         transform="matrix(0.352778,0,0,0.352778,-12.0423,-2.22209)"
         style="fill:#000080">
        <g
           transform="translate(0,13.1641)"
           id="g7006"
           style="fill:#000080">
          <g
             class="typst-text"
             transform="scale(0.00976562,-0.00976562)"
             id="g8749"
             style="fill:#000080">
            <g
               id="g975"
               style="fill:#000080">
              <path
                 d="M 580,662 H 389 V 250 Q 389,127 421,97.5 453,68 567,63 577,53 577.5,28.5 578,4 567,-4 424,0 303,0 180,0 37,-4 29,4 29,28.5 29,53 37,63 152,67 183.5,97 215,127 215,250 v 821 q 0,123 -31.5,152.5 Q 152,1253 37,1257 q -8,8 -8,33 0,25 8,35 164,-4 264,-4 h 523 q 54,0 96,8 7,0 8,-6 22,-118 45,-297 -27,-10 -64,-10 -25,80 -53.5,123 -28.5,43 -92,71.5 Q 700,1239 596,1239 h -92 q -70,0 -92.5,-24.5 Q 389,1190 389,1108 V 739 h 191 q 125,0 153.5,24.5 Q 762,788 766,879 q 8,10 32.5,10 24.5,0 35.5,-10 -4,-106 -5,-177 0,-78 5,-180 -10,-10 -35,-10 -25,0 -33,10 -4,55 -12.5,79 -8.5,24 -49,42.5 Q 664,662 580,662 Z"
                 id="path9249"
                 style="fill:#000080" />
            </g>
            <g
               transform="translate(993)"
               id="g872"
               style="fill:#000080">
              <path
                 d="m 84,420 q 0,203 113,336 122,143 321,143 147,0 248.5,-72.5 Q 868,754 908,653.5 948,553 948,438 948,224 815,94 698,-21 514,-20 309,-20 196.5,113 84,246 84,420 Z M 487,827 Q 260,827 260,467 260,401 275.5,333.5 291,266 321.5,200.5 352,135 409.5,93 467,51 543,51 633,51 702.5,125 772,199 772,373 772,592 696,709.5 620,827 487,827 Z"
                 id="path1016"
                 style="fill:#000080" />
            </g>
            <g
               transform="translate(2025)"
               id="g2588"
               style="fill:#000080">
              <path
                 d="m 360,733 q 0,-10 6.5,-14 6.5,-4 16.5,10 41,70 101.5,120 60.5,50 125.5,50 59,0 91,-31.5 32,-31.5 32,-66.5 0,-39 -29.5,-71 -29.5,-32 -66.5,-32 -38,0 -74,48 -20,26 -53,26 -25,0 -94,-100 -49,-74 -49,-137 V 250 Q 367,127 394.5,99.5 422,72 535,63 545,53 545,28.5 545,4 535,-4 392,0 287,0 197,0 53,-4 45,4 45,28.5 45,53 53,63 q 100,6 126,35 26,29 26,152 v 399 q 0,86 -23.5,108.5 Q 158,780 72,788 q -12,35 -4,58 152,20 251,59 16,0 25,-16 10,-25 16,-156 z"
                 id="path2157"
                 style="fill:#000080" />
            </g>
            <g
               transform="translate(2786)"
               id="g8062"
               style="fill:#000080">
              <path
                 d="m 348,733 q 2,-27 25,0 147,166 311,166 78,0 134,-42.5 56,-42.5 71,-107.5 5,-20 22,-1 143,151 338,151 125,0 168,-84 43,-84 43,-242 V 250 Q 1460,127 1481.5,98.5 1503,70 1591,63 q 8,-10 8,-34.5 0,-24.5 -8,-32.5 -115,4 -211,4 -106,0 -209,-4 -8,8 -8,32.5 0,24.5 8,34.5 84,6 105.5,36 21.5,30 21.5,151 v 360 q 0,98 -30.5,140.5 -30.5,42.5 -91.5,42.5 -147,0 -271,-136 2,-25 2,-82 V 250 Q 907,127 927.5,98.5 948,70 1028,63 1036,53 1036,29.5 1036,6 1028,-4 926,0 827,0 721,0 618,-4 q -8,10 -8,34.5 0,24.5 8,32.5 86,6 106.5,35 20.5,29 20.5,152 v 356 q 0,186 -135,187 -98,0 -221,-121 -35,-37 -35,-86 V 250 q 0,-85 12,-122 12,-37 34,-48 22,-11 81,-17 9,-9 9,-33.5 Q 490,5 481,-4 358,0 274,0 176,0 53,-4 45,4 45,28.5 45,53 53,63 q 90,6 115,36 25,30 25,151 v 399 q 0,86 -24,108.5 -24,22.5 -110,30.5 -12,35 -4,58 152,20 252,59 16,0 25,-16 10,-23 16,-156 z"
                 id="path2356"
                 style="fill:#000080" />
            </g>
            <g
               transform="translate(4403)"
               id="g9832"
               style="fill:#000080">
              <path
                 d="M 444,-20 Q 303,-20 241.5,58.5 180,137 180,258 v 393 q 0,96 -25.5,127 -25.5,31 -101.5,37 -8,8 -8,32.5 0,24.5 8,35.5 139,-4 209,-4 51,0 72,4 16,0 16,-13 -8,-150 -8,-211 V 287 q 0,-121 50,-166 50,-45 114,-45 92,0 205,98 33,29 32,80 v 395 q 0,98 -24.5,130 -24.5,32 -102.5,36 -10,8 -10,32.5 0,24.5 10,35.5 139,-4 209,-4 51,0 72,4 16,0 16,-13 -8,-150 -8,-211 V 266 q 0,-80 28,-110.5 28,-30.5 122,-38.5 10,-10 10,-28.5 Q 1065,70 1055,61 891,43 813,-20 q -18,-8 -39,0 -18,70 -22,120 -2,10 -12.5,9.5 Q 729,109 721,102 569,-20 444,-20 Z"
                 id="path4567"
                 style="fill:#000080" />
            </g>
            <g
               transform="translate(5490)"
               id="g8468"
               style="fill:#000080">
              <path
                 d="m 195,250 v 895 q 0,113 -20.5,137.5 Q 154,1307 63,1313 q -23,23 -12,61 182,14 287,56 27,0 27,-21 -8,-82 -9,-215 V 250 Q 356,127 382,97.5 408,68 504,63 512,53 512,28.5 512,4 504,-4 369,0 276,0 190,0 47,-4 37,4 37,28.5 37,53 47,63 q 96,4 122,34 26,30 26,153 z"
                 id="path9936"
                 style="fill:#000080" />
            </g>
            <g
               transform="translate(6030)"
               id="g3541"
               style="fill:#000080">
              <path
                 d="M 600,477 438,434 Q 243,385 244,209 244,154 281.5,108.5 319,63 391,63 q 70,0 180,91 29,23 29,53 z m 0,-379 h -4 L 555,66 Q 444,-20 332,-20 74,-20 74,201 q 0,102 93,180 93,78 245,117 l 176,43 q 12,4 12,24 0,266 -166,266 -68,0 -116,-21.5 -48,-21.5 -48,-64.5 0,-29 4,-40 6,-12 7,-37 0,-23 -28,-46.5 -28,-23.5 -69,-23.5 -72,0 -71,74 0,86 105.5,156.5 Q 324,899 451,899 760,899 760,553 V 252 q 0,-43 1,-67.5 1,-24.5 7,-53.5 6,-29 19.5,-41 13.5,-12 33.5,-12 37,0 76,33 29,-16 35,-56 -78,-76 -195,-75 -70,0 -98.5,30.5 Q 610,41 600,98 Z"
                 id="path4103"
                 style="fill:#000080" />
            </g>
          </g>
        </g>
        <g
           id="g7271"
           style="fill:#000080" />
      </g>
    </g>
    <g
       inkscape:label=""
       transform="matrix(1.0885714,0,0,1.0885714,73.460622,70.781425)"
       id="g12">
      <g
         id="g4736"
         transform="matrix(0.352778,0,0,0.352778,-34.3559,-3.10974)">
        <g
           id="g158" />
        <g
           transform="translate(0,-9.1)"
           id="g4645" />
        <g
           transform="translate(0,-3.836)"
           id="g6787" />
        <g
           transform="translate(20.994,-3.836)"
           id="g5484" />
        <g
           transform="translate(20.994,5.46)"
           id="g9882">
          <g
             class="typst-text"
             transform="scale(0.014,-0.014)"
             id="g4153">
            <g
               id="g3496">
              <path
                 d="M 303,664 C 260.3333,622 195.66666,601 108.99998,601 v -44 c 58.66668,0 106,8.6667 142,26 V 85 c 0,-12.66667 -1.33332,-21 -4,-25 -5.33332,-11.33333 -35.33332,-17 -90,-17 h -41 V 0 L 294,4 473,0 v 43 h -41 c -54.6667,0 -85,5.66667 -91,17 -2,4 -3,12.33333 -3,25 v 547 c 0,26.7067 -3.52063,32 -35,32 z"
                 id="path8293" />
            </g>
          </g>
        </g>
        <g
           transform="translate(2,10.74)"
           id="g1370" />
        <g
           transform="translate(2,11.412)"
           id="g8835" />
        <g
           transform="translate(2,11.972)"
           id="g2203">
          <g
             class="typst-text"
             transform="scale(0.014,-0.014)"
             id="g6436">
            <g
               id="g2149">
              <path
                 d="m 847,-2 c 4,8.6666718 6,14.666672 6,18 0,16 -8,24 -24,24 -9.3333,0 -16,-4.33333 -20,-13 C 666.3333,-259 595,-403 595,-405 v -1 c 0,-6.6667 -68.3333,-152.3334 -205,-437.00006 l -173,382 c -4.66667,10.66669 -10,16 -16,16 -3.33333,0 -9,-3 -17,-9 l -98,-74 c -8.66667,-6.66669 -13,-12.33334 -13,-17 0,-10 4.66667,-15 14,-15 2.66667,0 8,3 16,9 l 48,35 194,-427 c 4.6667,-11.33334 12,-17 22,-17 12,0 20.3333,4.66666 25,14 z"
                 id="path8418" />
            </g>
          </g>
        </g>
        <g
           transform="translate(13.662,11.748)"
           id="g5879">
          <path
             class="typst-shape"
             fill="none"
             stroke="#000000"
             stroke-width="0.672"
             stroke-linecap="butt"
             stroke-linejoin="miter"
             stroke-miterlimit="4"
             d="M 0,0 H 34.292"
             id="path3002" />
        </g>
        <g
           transform="translate(13.662,13.675)"
           id="g3264">
          <g
             class="typst-group"
             id="g9441">
            <g
               id="g3117">
              <g
                 id="g3132" />
              <g
                 transform="translate(0,1.41)"
                 id="g3826" />
              <g
                 transform="translate(0,10.706)"
                 id="g3200">
                <g
                   class="typst-text"
                   transform="scale(0.014,-0.014)"
                   id="g4231">
                  <g
                     id="g2609">
                    <path
                       d="m 119,424 c 31.79085,0 56,24.20844 56,56 0,36 -18.66667,54.6667 -56,56 22.3666,47.0876 71.544,85 137,85 88.1449,0 146,-65.7281 146,-154 0,-48 -17.3333,-94.3333 -52,-139 -17.3333,-22.6667 -30.3333,-38.6667 -39,-48 L 74,45 C 60.69464,33.357803 63,29.960907 63,0 h 412 l 31,188 h -42 c -7.3333,-53.33333 -15.3333,-83.66667 -24,-91 -4.6667,-3.33333 -36.33334,-5 -95,-5 H 175 c 66.66667,59.33333 129.3333,112.33333 188,159 44.6667,35.3333 77,66.3333 97,93 30,38.6667 45,79.6667 45,123 0,62 -24.3333,111 -73,147 -43.3333,33.3333 -97,50 -161,50 -54.66667,0 -102.33333,-16 -143,-48 -43.33333,-34.6667 -65,-79 -65,-133 0,-34.4687 25.20494,-59 56,-59 z"
                       id="path421" />
                  </g>
                </g>
              </g>
              <g
                 transform="translate(7.966,4.672)"
                 id="g2499" />
              <g
                 transform="translate(7.966,10.706)"
                 id="g4825">
                <g
                   class="typst-text"
                   transform="scale(0.014,-0.014)"
                   id="g890">
                  <g
                     id="g4051">
                    <path
                       d="m 448,-10 c 25.0196,0 50,22.927185 50,48 0,5.33333 -2.6667,13.33333 -8,24 -24,44.66667 -36,101.66667 -36,171 0,37.3333 4.3333,78.3333 13,123 h 120 c 38,0 57,14.3333 57,43 0,21.3333 -15.3333,32 -46,32 H 226 C 186,431 147.33333,414 110,380 96.66667,367.3333 82.5,351 67.5,331 52.5,311 45,298.3333 45,293 c 0,-10.6667 7,-16 21,-16 8,0 15,4 21,12 32,44.6667 75.33333,67 130,67 h 55 C 250.66667,281.3333 209.33333,180.66666 148,53.999985 c -3.33333,-6.666672 -5.66667,-10.666672 -7,-12 -2,-8.666672 -3,-14.333329 -3,-17 0,-23.3333285 12.66667,-35 38,-35 22,0 40.33333,17.9999997 55,54 3.33333,8.666671 11,36 23,81.999995 L 314,356 H 424 C 400,261.3333 388,187.33331 388,133.99998 388,75.143295 403.05408,-10.000015 448,-10.000015 Z"
                       id="path4784" />
                  </g>
                </g>
              </g>
              <g
                 transform="translate(17.374)"
                 id="g9728" />
              <g
                 transform="translate(17.374,4.672)"
                 id="g7776" />
              <g
                 transform="translate(17.374,10.706)"
                 id="g6760">
                <g
                   class="typst-text"
                   transform="scale(0.014,-0.014)"
                   id="g7137">
                  <g
                     id="g6810">
                    <path
                       d="m 638,400 c 0,20.6667 -15.3333,31 -46,31 H 339 C 288.3333,431 240.66666,416 195.99998,386 128.19052,340.7937 58.999985,256.37857 58.999985,154.00002 c 0,-98.75945 74.139985,-164.000005 172.999995,-164.000005 70.66668,0 133.33332,26.666672 188.00002,80 C 474.6667,123.33334 502,185.33334 502,256 c 0,38 -8.6667,71.3333 -26,100 h 106 c 34.93085,0 56,15.327 56,44 z M 139,127 c 0,50.88344 24.31177,120.1863 47,158 30,47.3333 75.3333,71 136,71 65.3333,0 98,-29.6667 98,-89 0,-43.33333 -10.6667,-86.33333 -32,-129 C 364.6667,92.66667 335,61 299,43 275,31 253,25 233,25 173.10457,25 139,67.31262 139,127 Z"
                       id="path3017" />
                  </g>
                </g>
              </g>
              <g
                 transform="translate(26.698)"
                 id="g9093" />
              <g
                 transform="translate(26.698,6.66)"
                 id="g6574">
                <g
                   class="typst-text"
                   transform="scale(0.01,-0.01)"
                   id="g6294">
                  <g
                     id="g8022">
                    <path
                       d="m 152,424 c 35.79085,0 62,26.20844 62,62 0,35.3333 -17.66667,56 -53,62 30.66667,44.6667 78.66667,67 144,67 94.6441,0 171,-58.897 171,-151 0,-63.3333 -44,-132.3333 -132,-207 L 104,52 C 96,45.33333 91.66667,39.33333 91,34 V 0 h 465 l 34,199 h -50 c -8.6667,-54 -17.6667,-84.33333 -27,-91 -5.3333,-3.33333 -39.66666,-5 -103,-5 H 229 c 129.38892,95.3889 156.88855,113.63466 240.00003,173 40,29.3333 68.33337,56.3333 85.00003,81 23.33334,34.6667 35,70.6667 35,108 0,66.6667 -28.66666,118 -86,154 -48.66669,31.3333 -108,47 -178,47 -58.66669,0 -110.66669,-14.6667 -156.00001,-44 -52,-33.3333 -78.000004,-78 -78.000004,-134 0,-37.52374 29.789844,-64 61.000004,-64 z"
                       id="path6884" />
                  </g>
                </g>
              </g>
            </g>
          </g>
        </g>
        <g
           transform="translate(2,8.82)"
           id="g7088">
          <path
             class="typst-shape"
             fill="none"
             stroke="#000000"
             stroke-width="0.96"
             stroke-linecap="butt"
             stroke-linejoin="miter"
             stroke-miterlimit="4"
             d="M 0,0 H 45.954"
             id="path840" />
        </g>
        <g
           transform="translate(53.2873,4.86)"
           id="g5814" />
        <g
           transform="translate(53.2873,4.86)"
           id="g5679" />
        <g
           transform="translate(53.2873,4.86)"
           id="g7026" />
        <g
           transform="translate(53.2873,13.82)"
           id="g2849">
          <g
             class="typst-text"
             transform="scale(0.02,-0.02)"
             id="g8997">
            <g
               id="g3381">
              <path
                 d="m 415,251 c 0,114.94177 -66.5503,197 -179.00002,197 -60,0 -110.33332,-23.3333 -150.999995,-70 -38,-44 -57,-96.6667 -57,-158.00002 0,-62.66667 21,-116.83332 63,-162.499995 41.999995,-45.666672 93.999995,-68.5 155.999995,-68.5 57.33332,0 101.00002,19.6666715 131.00002,59 24.6667,32.666675 37,56.999995 37,72.999995 0,10 -5.6667,15 -17,15 -8,0 -13.3333,-5.33332 -16,-16 -22,-65.999995 -65,-98.999995 -129,-98.999995 -44.66667,0 -80.33333,21.333328 -107,64 -18.66667,30.666675 -28.33333,77.999995 -29,141.999995 h 270 c 22.30066,0 28,2.02059 28,24 z m -89,98 c 10.6667,-33.3333 16,-64.66666 16,-93.99998 H 118 C 121.33333,321 138,365.6667 168,389 c 24.66667,20 47.33333,30 68,30 44.6667,0 74.6667,-23.3333 90,-70 z"
                 id="path2425" />
            </g>
            <g
               transform="translate(444)"
               id="g8771">
              <path
                 d="m 418,3 c 23.3333,0.6666718 56,-0.3333282 98,-3 v 38 c -53.20853,0 -72.58655,0.894867 -94,29 L 292,235 c 42.6667,53.3333 72,89.3333 88,108 28,32 67.3333,48.6667 118,50 v 38 c -28,-2 -56,-3 -84,-3 -37.3333,0 -70.3333,1 -99,3 v -38 c 19.3333,-2 29,-11 29,-27 0,-9.3333 -4.6667,-20 -14,-32 l -58,-72 -74,95 c -5.33333,6.6667 -8,11.6667 -8,15 0,12.6667 11.66667,19.6667 35,21 v 38 l -111,-3 c -26,-0.6667 -58.33333,0.3333 -97,3 v -38 c 36,0 59,-2.6667 69,-8 10,-5.3333 26,-22.3333 48,-51 L 229,210 C 180.33333,147.33333 150.33333,109.33333 139,96 107,57.33333 64.66667,38 12,38 V 0 c 36.66667,2.6666718 65.33333,3.6666718 86,3 l 97,-3 v 38 c -18.66667,2.66667 -28,11.66667 -28,27 0,4 1,8.66667 3,14 6,12.66667 33,47.33333 81,104 L 323,89 C 333.6667,75 340.33334,65 343,59 343,46.33333 331,39.33333 307,38 V 0 Z"
                 id="path3105" />
            </g>
            <g
               transform="translate(972)"
               id="g251">
              <path
                 d="m 298,-13 c 62,0 114.6667,22.333328 158,67 43.3333,44.66667 65,98.33333 65,161 0,60.6667 -19.6667,113 -59,157 -40.6667,46.6667 -91,70 -151,70 -50.6667,0 -95.00002,-19.6667 -133.00002,-59 v 59 L 27.999985,431 v -38 c 36.666675,0 58.666675,-2.5 66,-7.5 7.333325,-5 10.999995,-17.8333 10.999995,-38.5 v -462 c 0,-19.33333 -3.66667,-30.83333 -10.999995,-34.5 -7.333325,-3.66667 -29.333325,-5.5 -66,-5.5 v -39 L 141.99998,-191 257,-194 v 39 c -36.66667,0 -58.5,1.83333 -65.5,5.5 -7,3.66667 -10.5,15.16667 -10.5,34.5 V 44 c 21.97447,-30.764252 64.82603,-57 117,-57 z m 6,422 c 40.6667,0 73.33334,-23 98,-69 19.3333,-38.6667 29,-80.33334 29,-125.00002 0,-46.66667 -11,-89.66667 -33,-128.999995 -26,-46.666672 -60.6667,-70 -104,-70 -42,0 -75.33333,19.666671 -100,59 -8.66667,13.333325 -13,26.333325 -13,38.999995 V 333 c 29.33333,50.6667 70.33333,76 123,76 z"
                 id="path7380" />
            </g>
          </g>
        </g>
        <g
           transform="translate(83.8473,-9.1)"
           id="g5620" />
        <g
           transform="translate(83.8473,13.82)"
           id="g7043">
          <g
             class="typst-text"
             transform="scale(0.02,-0.02)"
             id="g8259">
            <g
               id="g73">
              <path
                 d="m 521,-646 c 12,0 18,6 18,18 0,6 -2,11 -6,15 -87.3333,67.3333 -157,181.3333 -209,342 -44.6667,137.33333 -67,272 -67,404 v 234 c 0,132 22.3333,266.6667 67,404 52,160.6667 121.6667,274.6667 209,342.0001 4,4 6,9 6,15 0,12 -6,18 -18,18 -2,0 -5.3333,-0.6666 -10,-2 -98.6667,-76 -180,-193.66666 -244,-353 C 208.33333,643.6668 179,502.33347 179,367.00012 v -234 c 0,-135.3333262 29.33333,-276.66667 88,-424 64,-159.33332 145.3333,-277.00002 244,-353.00002 4.6667,-1.3333 8,-2 10,-2 z"
                 id="path642" />
            </g>
          </g>
        </g>
        <g
           transform="translate(95.7873,8.42)"
           id="g3379" />
        <g
           transform="translate(95.7873,13.82)"
           id="g9765">
          <g
             class="typst-text"
             transform="scale(0.02,-0.02)"
             id="g9336">
            <g
               id="g1441">
              <path
                 d="M 698,270 H 80 c -16,0 -24,-6.6667 -24,-20.00002 0,-13.33332 8,-20 24,-20 h 618 c 16,0 24,6.66668 24,20 0,11.54322 -11.9236,19.99999 -24,19.99999 z"
                 id="path4903" />
            </g>
          </g>
        </g>
        <g
           transform="translate(111.347,-3.836)"
           id="g2589">
          <g
             class="typst-group"
             id="g7956">
            <g
               id="g7337">
              <g
                 id="g9023" />
              <g
                 transform="translate(2)"
                 id="g3037" />
              <g
                 transform="translate(2,9.296)"
                 id="g9725">
                <g
                   class="typst-text"
                   transform="scale(0.014,-0.014)"
                   id="g1468">
                  <g
                     id="g6527">
                    <path
                       d="M 303,664 C 260.3333,622 195.66666,601 108.99998,601 v -44 c 58.66668,0 106,8.6667 142,26 V 85 c 0,-12.66667 -1.33332,-21 -4,-25 -5.33332,-11.33333 -35.33332,-17 -90,-17 h -41 V 0 L 294,4 473,0 v 43 h -41 c -54.6667,0 -85,5.66667 -91,17 -2,4 -3,12.33333 -3,25 v 547 c 0,26.7067 -3.52063,32 -35,32 z"
                       id="path4283" />
                  </g>
                </g>
              </g>
              <g
                 transform="translate(2,15.74)"
                 id="g6088" />
              <g
                 transform="translate(2,25.036)"
                 id="g5803">
                <g
                   class="typst-text"
                   transform="scale(0.014,-0.014)"
                   id="g1517">
                  <g
                     id="g4516">
                    <path
                       d="m 119,424 c 31.79085,0 56,24.20844 56,56 0,36 -18.66667,54.6667 -56,56 22.3666,47.0876 71.544,85 137,85 88.1449,0 146,-65.7281 146,-154 0,-48 -17.3333,-94.3333 -52,-139 -17.3333,-22.6667 -30.3333,-38.6667 -39,-48 L 74,45 C 60.69464,33.357803 63,29.960907 63,0 h 412 l 31,188 h -42 c -7.3333,-53.33333 -15.3333,-83.66667 -24,-91 -4.6667,-3.33333 -36.33334,-5 -95,-5 H 175 c 66.66667,59.33333 129.3333,112.33333 188,159 44.6667,35.3333 77,66.3333 97,93 30,38.6667 45,79.6667 45,123 0,62 -24.3333,111 -73,147 -43.3333,33.3333 -97,50 -161,50 -54.66667,0 -102.33333,-16 -143,-48 -43.33333,-34.6667 -65,-79 -65,-133 0,-34.4687 25.20494,-59 56,-59 z"
                       id="path2597" />
                  </g>
                </g>
              </g>
              <g
                 transform="translate(2,12.656)"
                 id="g6549">
                <path
                   class="typst-shape"
                   fill="none"
                   stroke="#000000"
                   stroke-width="0.96"
                   stroke-linecap="butt"
                   stroke-linejoin="miter"
                   stroke-miterlimit="4"
                   d="M 0,0 H 7.966"
                   id="path7901" />
              </g>
            </g>
          </g>
        </g>
        <g
           transform="translate(123.313,-7.416)"
           id="g8392">
          <g
             class="typst-group"
             id="g9834">
            <g
               id="g6364">
              <g
                 id="g2348" />
              <g
                 transform="translate(0,4.296)"
                 id="g5678" />
              <g
                 transform="translate(0,4.296)"
                 id="g7522" />
              <g
                 transform="translate(0,21.236)"
                 id="g492">
                <g
                   class="typst-text"
                   transform="scale(0.02,-0.02)"
                   id="g2470">
                  <g
                     id="g9479">
                    <path
                       d="m 380,-347 c 10,0 15,5 15,15 0,4.6667 -1.6667,8.6667 -5,12 -61.3333,46.6667 -110.3333,124.00002 -146.99998,232.000015 -32,93.3333285 -48,184.666675 -48,274.000005 V 314 c 0,89.3333 16,180.66666 48,274 C 279.6667,696 328.6667,773.3333 390,820 c 3.3333,3.3333 5,7.3333 5,12 0,10 -5,15 -15,15 -2,0 -4.6667,-1 -8,-3 C 302,790.6667 244,710.6667 198,604 153.33333,502.6667 131,406 131,314 V 186 c 0,-92 22.33333,-188.6666718 67,-290 46,-106.66667 104,-186.6667 174,-240 3.3333,-2 6,-3 8,-3 z"
                       id="path5824" />
                  </g>
                </g>
              </g>
              <g
                 transform="translate(9.16,5.146)"
                 id="g4932">
                <g
                   class="typst-group"
                   id="g4930">
                  <g
                     id="g9233">
                    <g
                       id="g8216" />
                    <g
                       transform="translate(2)"
                       id="g459" />
                    <g
                       transform="translate(2)"
                       id="g3885" />
                    <g
                       transform="translate(2,6.174)"
                       id="g1315">
                      <g
                         class="typst-text"
                         transform="scale(0.014,-0.014)"
                         id="g9054">
                        <g
                           id="g6110">
                          <path
                             d="m 583,365 c 0,50.65433 -51.56775,76 -106,76 -45.3333,0 -82,-22 -110,-66 -24,44 -63.6667,66 -119.00002,66 -37.33332,0 -75.66667,-16.3333 -115,-49 -41.33332,-34 -61.999995,-69 -61.999995,-105 0,-11.3333 6.666675,-17 20,-17 10.666675,0 18.333325,6.3333 22.999995,19 17.60755,53.99646 67.30902,117 131,117 C 281.66666,406 300,385.6667 300,345 c 0,-12.6667 -6.6667,-46.6667 -20,-102.00002 l -34,-134 c -9.44473,-37.77891 -45.97343,-83.999995 -89,-83.999995 -17.33333,0 -32,3.333328 -44,10 20.35164,8.722137 38,30.626985 38,54 0,23.869275 -19.18237,40.999995 -43,40.999995 -34.45752,0 -60,-29.64596 -60,-63.999995 0,-49.505692 53.29646,-76 107,-76 46,0 82.66667,22 110,66 24,-44 63.3333,-66 118,-66 54.6667,0 99,22 133,66 29.3333,39.333325 44,68.666675 44,87.999995 0,11.33333 -6.3333,17 -19,17 -11.3333,0 -19,-6.66667 -23,-20 -16.54083,-53.167 -68.32935,-115.999995 -131,-115.999995 -37.3333,0 -56,20 -56,60 0,15.333325 17,89.666675 51,223.000015 16.6667,65.3333 47.33334,98 92,98 l 9,-1 c 12,0 23.6667,-2.6667 35,-8 -24.6667,-10.6667 -37,-29 -37,-55 0,-23.86926 19.18237,-41 43,-41 34.48364,0 59,29.64597 59,64 z"
                             id="path9622" />
                        </g>
                      </g>
                    </g>
                    <g
                       transform="translate(11.072,2.352)"
                       id="g6942" />
                    <g
                       transform="translate(11.072,6.174)"
                       id="g4920">
                      <g
                         class="typst-text"
                         transform="scale(0.014,-0.014)"
                         id="g2019">
                        <g
                           id="g7229">
                          <path
                             d="M 696,273 H 82 c -20,0 -26,-9.6667 -26,-23.00002 0,-13.33332 6,-23 26,-23 h 614 c 20,0 26,9.66668 26,23 0,11.54322 -6,22.99999 -26,22.99999 z"
                             id="path8759" />
                        </g>
                      </g>
                    </g>
                    <g
                       transform="translate(21.964)"
                       id="g1520" />
                    <g
                       transform="translate(21.964,6.174)"
                       id="g5590">
                      <g
                         class="typst-text"
                         transform="scale(0.014,-0.014)"
                         id="g6383">
                        <g
                           id="g387">
                          <path
                             d="m 543,431 c -19.3333,0 -34,-8.6667 -44,-26 -1.3333,-2.6667 -6.66666,-22 -16,-58 L 432,142 c -4,-17.33333 -9,-30.33333 -15,-39 -37.3333,-53.33333 -79.66666,-80 -127,-80 -51.33333,0 -77,28 -77,84 0,15.33333 5.33333,45.66667 16,91 l 51,207 c 0,24 -12.6667,36 -38.00002,36 -25.33332,0 -42.33332,-16.3333 -51,-49 L 53.999985,-157 c -2.666672,-10.66667 -4,-17.66667 -4,-21 0,-24 12.333328,-36 37,-36 25.999995,0 43.333325,17.33333 51.999995,52 l 44,176 c 28,-17.3333282 62.33333,-26 103.00002,-26 38.6667,0 75.6667,13.3333282 111,40 4.6667,4 14.33334,13 29,27 16,-44.666672 50.6667,-67 104,-67 33.3333,0 60.3333,18 81,54 8.109,13.514984 35,82.4444 35,101 0,10.66667 -6.6667,16 -20,16 -5.3333,0 -9.3333,-1 -12,-3 -7.3333,-12 -11.6666,-22 -12.99994,-30 -17.33331,-68.66667 -40,-103 -68,-103 -19.33331,0 -29,15 -29,45 0,11.33333 5,37 15,77 l 21,89 23,87 c 11.33334,44 17,69 17,75 0,19.86926 -17.18236,35 -37,35 z"
                             id="path6071" />
                        </g>
                      </g>
                    </g>
                    <g
                       transform="translate(12.185,17.436)"
                       id="g6056" />
                    <g
                       transform="translate(12.185,23.47)"
                       id="g9011">
                      <g
                         class="typst-text"
                         transform="scale(0.014,-0.014)"
                         id="g8507">
                        <g
                           id="g4091">
                          <path
                             d="m 638,400 c 0,20.6667 -15.3333,31 -46,31 H 339 C 288.3333,431 240.66666,416 195.99998,386 128.19052,340.7937 58.999985,256.37857 58.999985,154.00002 c 0,-98.75945 74.139985,-164.000005 172.999995,-164.000005 70.66668,0 133.33332,26.666672 188.00002,80 C 474.6667,123.33334 502,185.33334 502,256 c 0,38 -8.6667,71.3333 -26,100 h 106 c 34.93085,0 56,15.327 56,44 z M 139,127 c 0,50.88344 24.31177,120.1863 47,158 30,47.3333 75.3333,71 136,71 65.3333,0 98,-29.6667 98,-89 0,-43.33333 -10.6667,-86.33333 -32,-129 C 364.6667,92.66667 335,61 299,43 275,31 253,25 233,25 173.10457,25 139,67.31262 139,127 Z"
                             id="path7642" />
                        </g>
                      </g>
                    </g>
                    <g
                       transform="translate(2,11.09)"
                       id="g2284">
                      <path
                         class="typst-shape"
                         fill="none"
                         stroke="#000000"
                         stroke-width="0.96"
                         stroke-linecap="butt"
                         stroke-linejoin="miter"
                         stroke-miterlimit="4"
                         d="M 0,0 H 29.694"
                         id="path595" />
                    </g>
                  </g>
                </g>
              </g>
              <g
                 transform="translate(42.854,4.296)"
                 id="g4367" />
              <g
                 transform="translate(42.854,21.236)"
                 id="g7023">
                <g
                   class="typst-text"
                   transform="scale(0.02,-0.02)"
                   id="g1452">
                  <g
                     id="g6545">
                    <path
                       d="m 86,-344 c 70,53.3333 128,133.33331 174,239.99998 44.6667,101.333333 67,198.000005 67,290 V 314 c 0,92 -22.3333,188.6667 -67,290 -46,106.6667 -104,186.6667 -174,240 -3.33333,2 -6,3 -8,3 -10,0 -15,-5 -15,-15 0,-4.6667 1.66667,-8.6667 5,-12 61.33333,-46.6667 110.33333,-124 147,-232 32,-93.3333 48,-184.66666 48,-274 V 186 C 263,96.66667 247,5.3333282 215,-88 178.33333,-196 129.33333,-273.3333 68,-320 c -3.33333,-3.3333 -5,-7.3333 -5,-12 0,-10 5,-15 15,-15 2,0 4.66667,1 8,3 z"
                       id="path4221" />
                  </g>
                </g>
              </g>
              <g
                 transform="translate(52.014)"
                 id="g5182" />
              <g
                 transform="translate(52.014,9.296)"
                 id="g1346">
                <g
                   class="typst-text"
                   transform="scale(0.014,-0.014)"
                   id="g3431">
                  <g
                     id="g4081">
                    <path
                       d="m 119,424 c 31.79085,0 56,24.20844 56,56 0,36 -18.66667,54.6667 -56,56 22.3666,47.0876 71.544,85 137,85 88.1449,0 146,-65.7281 146,-154 0,-48 -17.3333,-94.3333 -52,-139 -17.3333,-22.6667 -30.3333,-38.6667 -39,-48 L 74,45 C 60.69464,33.357803 63,29.960907 63,0 h 412 l 31,188 h -42 c -7.3333,-53.33333 -15.3333,-83.66667 -24,-91 -4.6667,-3.33333 -36.33334,-5 -95,-5 H 175 c 66.66667,59.33333 129.3333,112.33333 188,159 44.6667,35.3333 77,66.3333 97,93 30,38.6667 45,79.6667 45,123 0,62 -24.3333,111 -73,147 -43.3333,33.3333 -97,50 -161,50 -54.66667,0 -102.33333,-16 -143,-48 -43.33333,-34.6667 -65,-79 -65,-133 0,-34.4687 25.20494,-59 56,-59 z"
                       id="path4186" />
                  </g>
                </g>
              </g>
            </g>
          </g>
        </g>
        <g
           transform="translate(184.413,-9.09)"
           id="g7317" />
        <g
           transform="translate(184.413,13.81)"
           id="g8402">
          <g
             class="typst-text"
             transform="scale(0.02,-0.02)"
             id="g8203">
            <g
               id="g4638">
              <path
                 d="m 86,-644 c 98.66667,76 180,193.6667 244,353 58.6667,147.33333 88,288.6666718 88,424 v 234 c 0,135.3333 -29.3333,276.6666 -88,423.99994 -64,159.33331 -145.33333,276.99996 -244,352.99996 -4.66667,1.3334 -8,2 -10,2 -12,0 -18,-6 -18,-18 0,-6 2,-11 6,-15 87.33333,-67.3334 157,-181.3334 209,-342.0001 44.6667,-137.3333 67,-271.99998 67,-403.99998 v -234 c 0,-132.0000031 -22.3333,-266.66667 -67,-404 C 221,-431.66687 151.33333,-545.6669 64,-613.0002 c -4,-4 -6,-9 -6,-15 0,-12 6,-18 18,-18 2,0 5.33333,0.6667 10,2 z"
                 id="path6831" />
            </g>
          </g>
        </g>
        <g
           transform="translate(196.353,13.82)"
           id="g7559" />
        <g
           id="g7659" />
      </g>
    </g>
    <text
       xml:space="preserve"
       style="font-size:4.93889px;fill:#f9f9f9;stroke:#666666;stroke-width:0.264583"
       x="37.013306"
       y="88.574814"
       id="text12"><tspan
         sodipodi:role="line"
         id="tspan12"
         style="font-style:normal;font-variant:normal;font-weight:normal;font-stretch:normal;font-size:4.93889px;font-family:'Liberation Mono';-inkscape-font-specification:'Liberation Mono';fill:#000000;stroke:none;stroke-width:0.264583"
         x="37.013306"
         y="88.574814">$frac(1, sqrt(2 pi </tspan><tspan
         sodipodi:role="line"
         style="font-style:normal;font-variant:normal;font-weight:normal;font-stretch:normal;font-size:4.93889px;font-family:'Liberation Mono';-inkscape-font-specification:'Liberation Mono';fill:#000000;stroke:none;stroke-width:0.264583"
         x="37.013306"
         y="94.847687"
         id="tspan13">         sigma^2) exp(...</tspan></text>
  </g>
</svg>
